<svg width="1458" height="436" viewBox="0 0 1458 436" fill="none" xmlns="http://www.w3.org/2000/svg">
<g clip-path="url(#clip0_2_34)">
<path d="M388.664 382.515C388.664 369.737 389.15 356.926 388.56 344.171C387.5 321.282 385.189 298.432 384.48 275.503C383.204 234.373 382.646 193.219 381.937 152.066C381.241 111.512 380.646 70.9316 380.152 30.3251C379.945 15.9126 381.22 14.3104 395.589 14.484C418.183 14.7524 440.761 15.6206 463.331 16.0152C470.584 16.1415 473.413 19.5828 473.325 26.4418C472.911 59.079 472.265 91.7242 472.401 124.369C472.465 138.727 474.186 153.076 475.222 168.57C486.228 133.17 496.74 98.8594 507.579 64.6435C512.106 50.3337 516.991 36.1185 522.402 22.1165C523.534 19.1803 527.383 16.1494 530.547 15.3365C537.43 13.6002 544.487 12.6339 551.587 12.4555C570.898 11.9346 590.232 11.982 609.558 11.7925C619.863 11.6899 622.828 15.8732 618.277 24.8711C613.495 34.3426 608.196 43.5458 603.191 52.8989C602.187 54.7774 601.485 56.8453 600.64 58.7554L602.72 59.9946C607.773 52.962 613.24 46.1741 617.767 38.8179C621.84 32.2036 627.028 29.2122 634.743 30.4672C636.485 30.8776 638.284 30.9976 640.066 30.8224C659.066 27.4758 658.803 33.1902 659.711 49.9232C661.266 78.3378 661.8 106.871 662.102 135.364C662.812 201.231 663.091 267.097 663.633 332.971C663.704 342.443 669.076 349.586 675.842 349.981C683.118 350.407 688.593 344.756 689.932 334.645C690.64 328.8 690.883 322.91 690.658 317.028C689.861 291.17 688.522 265.329 688.075 239.464C687.725 219.487 688.394 199.478 688.657 179.478C689.215 137.124 689.853 94.7787 690.315 52.4016C690.395 45.3532 689.757 38.297 689.39 31.2565C689.04 24.6659 692.004 21.564 698.811 21.3903C719.301 20.8694 739.783 19.9933 760.281 19.4487C771.518 19.1487 773.829 20.9483 773.964 31.7537C774.204 46.4504 774.761 61.2654 773.271 75.8357C769.948 108.197 771.119 140.281 773.414 172.666C775.359 200.133 773.008 227.917 772.618 255.542C772.546 260.128 772.618 264.713 772.618 270.341C775.853 269.378 777.702 269.276 778.993 268.376C784.15 264.682 786.501 267.358 788.174 271.991C791.274 280.57 793.426 289.647 797.69 297.611C804.643 310.866 812.507 323.632 821.224 335.821C826.978 343.714 835.57 349.539 846.48 347.984C864.117 345.466 873.099 329.356 865.273 311.921C859.542 299.134 851.063 287.54 843.826 275.408C824.699 243.3 803.691 212.068 787.154 178.688C779.256 162.753 778.73 142.847 776.722 124.535C773.534 95.8206 780.826 68.4953 796.24 44.5166C813.374 17.8938 837.618 1.8948 871.593 0.166251C901.989 -1.41233 930.385 7.19095 959.697 11.0979C975.597 13.2211 991.576 14.4998 1007.59 15.9758C1017.86 16.9229 1019.34 18.2963 1016.44 28.0283C1005.43 64.9672 994.126 101.827 982.913 138.711C973.073 171.072 963.209 203.433 953.321 235.794C951.544 241.595 953.274 245.068 959.697 245.407C973.939 246.141 988.181 246.757 1002.42 247.475C1007.55 247.736 1010.34 245.849 1010.03 240.372C1009.13 224.933 1007.81 209.495 1007.63 194.04C1007.41 173.858 1008.26 153.668 1008.34 133.486C1008.34 128.56 1006.75 123.635 1006.67 118.702C1006.19 95.4891 1015.52 74.4308 1022.67 53.0883C1031.81 25.8261 1026.66 29.157 1057.05 28.3124C1066.86 28.0441 1076.66 27.5915 1086.45 26.9548C1094.47 26.4339 1097.87 29.6937 1097.52 37.7681C1096.81 54.2249 1096.13 70.6974 1096.21 87.1621C1096.32 110.975 1097.21 134.772 1097.56 158.585C1097.64 164.173 1096.89 169.769 1096.52 175.366L1099.3 176.1C1100.8 173.242 1102.69 170.519 1103.73 167.504C1118.69 124.461 1133.6 81.3818 1148.45 38.2654C1151.64 29.1333 1155.8 22.2664 1167.58 22.3533C1191.05 22.519 1214.52 21.3035 1237.99 21.3193C1247.36 21.3193 1249.8 26.1419 1246.02 34.8478C1223.4 86.9884 1200.78 139.124 1178.14 191.254C1174.3 200.173 1170.44 209.226 1168.13 218.587C1166.75 224.199 1166.8 231.129 1168.92 236.433C1180.44 265.732 1192.55 294.841 1204.95 323.76C1211.32 338.639 1218.68 353.106 1225.67 367.716C1226.53 369.508 1227.87 371.071 1230.91 372.231C1230.18 369.5 1229.89 366.54 1228.63 364.062C1215.08 337.478 1214.16 309.924 1218.58 280.791C1227.04 224.957 1233.2 168.791 1240.89 112.838C1243.28 95.3944 1247.52 78.1957 1250.84 60.8707C1252.44 52.6779 1256.73 47.9579 1265.67 47.2318C1296.77 44.6797 1327.85 41.9225 1358.91 38.96C1364.91 38.3917 1367.68 41.0753 1369.15 46.2925C1377.6 76.9092 1386.59 107.384 1394.4 138.158C1403.97 175.8 1412.8 213.623 1421.5 251.477C1426.02 271.209 1429.01 291.32 1433.52 311.076C1440.4 341.18 1447.99 371.126 1455.3 401.135C1455.78 403.14 1456.52 405.081 1457.04 407.07C1459.51 416.463 1458.25 418.42 1448.22 419.699C1442.33 420.488 1436.37 420.63 1430.46 421.277C1412.13 423.251 1393.88 425.713 1375.55 427.229C1362 428.35 1360.14 426.234 1358.88 412.919C1358.08 404.134 1357.11 395.357 1356.4 386.564C1355.94 380.85 1353.01 377.669 1347.26 378.095C1330.38 379.342 1313.45 380.408 1296.7 382.736C1293.51 383.178 1289.48 388.751 1288.73 392.524C1286.62 403.155 1286.03 414.087 1284.81 424.885C1284.01 431.601 1280.56 436.463 1273.45 436.037C1251.83 434.759 1230.24 432.88 1208.65 431.144C1207.66 431.065 1206.77 430.007 1204.28 428.405L1238.43 404.3C1238.09 403.653 1237.73 403.005 1237.38 402.358C1233.71 403.842 1229.88 405.058 1226.38 406.865C1211.33 414.592 1196.4 422.517 1181.39 430.299C1178.53 431.87 1175.54 433.19 1172.45 434.246C1159.77 438.192 1156.52 436.1 1151.98 423.732C1144.81 404.15 1136.53 384.946 1129.67 365.253C1121.1 340.525 1113.58 315.441 1105.5 290.547C1103.59 284.643 1101.29 278.865 1099.13 273.033L1095.83 273.648V317.935C1095.83 345.882 1095.83 373.833 1095.83 401.79C1095.83 413.819 1094.72 414.979 1082.58 415.042C1059.68 415.142 1036.78 415.142 1013.89 415.042C1003.29 414.987 1002.05 413.361 1002.39 403.203C1003.04 383.81 1003.62 364.425 1003.9 345.024C1003.98 338.67 1007.08 335.75 1012.97 335.339C1035.38 333.761 1032.02 335.663 1036.39 310.508C1038.52 298.195 1038.37 285.488 1039.24 272.962L1037.07 272.559C1036.47 274.216 1035.58 275.827 1035.3 277.539C1033.64 287.705 1032.06 297.882 1030.57 308.069C1028.08 325.276 1025.79 327.691 1007.99 328.291C995.242 328.717 982.427 328.22 969.643 328.204C956.995 328.204 955.656 329.309 952.333 341.133C949.871 349.91 947.137 358.608 944.523 367.345C936.107 395.468 915.569 411.151 889.174 421.688C867.656 430.268 845.516 428.413 824.149 424.963C811.438 422.911 798.646 414.908 788.286 406.62C768.441 390.732 750.781 372.42 739.902 348.797C736.714 341.977 735.415 335.734 739.249 328.686C744.708 318.662 749.609 308.345 754.71 298.148L752.861 296.909C744.756 308.898 736.419 320.745 728.745 333.003C727.35 335.229 727.677 339.546 728.872 342.143C734.291 353.88 739.822 365.617 746.238 376.872C752.749 388.261 752.741 393.526 742.253 401.9C716.607 422.367 687.047 429.644 654.531 426.1C643.246 424.869 632.654 421.893 622.445 413.787C632.862 410.006 629.809 403.668 626.988 397.654C622.892 388.972 618.484 380.368 614.237 371.741L611.041 372.878C613.392 379.398 615.727 385.925 618.11 392.429C621.688 402.177 621.099 403.645 610.674 405.223C587.467 408.728 564.187 411.727 540.98 415.224C532.643 416.479 528.228 413.029 525.646 405.515C514.975 374.954 503.897 344.535 493.337 313.957C489.129 301.763 485.997 289.205 482.179 276.861C480.92 272.835 478.944 269.023 476.441 263.072C474.943 266.718 473.795 268.155 473.851 269.544C475.636 311.55 477.496 353.551 479.43 395.546C479.502 397.015 479.701 398.483 479.797 399.951C480.936 417.584 478.123 420.244 460.598 419.304C442.786 418.349 424.734 419.407 407.201 416.723C376.598 411.987 347.022 419.73 316.977 421.277C312.816 421.488 308.662 421.751 304.512 422.067C298.343 422.485 295.132 419.944 294.685 413.574C293.729 400.085 292.414 386.62 291.282 373.139C290.366 362.341 288.405 360.265 277.798 359.91C269.183 359.618 260.543 359.792 251.928 359.523C245.258 359.31 241.871 362.475 241.568 368.853C241.241 375.609 241.305 382.381 241.034 389.137C240.556 400.811 237.049 403.787 225.349 401.987C202.748 398.53 180.185 394.805 157.607 391.221C154.125 390.669 150.61 390.321 147.111 389.879C146.904 390.598 146.705 391.324 146.498 392.05C154.093 394.347 161.919 396.115 169.211 399.154C174.256 401.237 182.76 405.523 182.449 408.002C181.484 416.273 173.204 412.856 167.896 412.95C118.556 413.866 69.208 414.529 19.8599 415.121C2.90849 415.334 0.812472 413.337 0.780593 396.494C0.669018 377.614 -1.41106 358.363 1.7768 340.083C5.60223 318.322 12.759 296.845 20.904 276.19C40.6767 226.062 61.86 176.478 82.4377 126.658C83.3303 124.496 83.7925 122.159 84.4779 119.902C86.1117 114.511 84.0077 112.23 78.413 112.191C63.5894 112.096 48.7659 111.812 33.9343 111.575C23.3666 111.409 19.7245 108.765 19.1985 98.1569C18.011 74.3676 17.6045 50.5389 16.8076 26.7259C16.4967 17.657 22.1711 16.2205 29.559 16.1178C71.1659 15.5285 112.775 14.8734 154.388 14.1525C159.735 14.0657 165.099 14.1525 170.439 13.9868C180.48 13.6237 184.481 16.5046 184.075 26.6154C182.529 64.9277 184.178 103.256 168.462 140.274C148.673 186.842 132.208 234.776 114.189 282.078C109.997 293.081 105.048 303.799 100.975 314.841C97.9386 323.105 99.158 324.179 107.654 323.816C119.823 323.295 132.017 323.026 144.194 322.758C152.053 322.6 155.918 318.559 157.432 311.147C166.039 269.062 175.029 227.056 183.405 184.932C186.729 168.222 188.187 151.134 191.606 134.456C195.694 114.59 200.811 94.9287 205.872 75.2595C210.119 58.7317 215.116 42.3934 219.38 25.8656C221.189 18.8804 224.847 15.0128 232.307 15.1312C259.635 15.5653 286.963 15.7785 314.259 16.7098C317.311 16.8124 322.229 20.5774 322.874 23.4109C328.875 49.7654 334.916 76.1514 339.419 102.79C348.186 154.394 355.645 206.187 364.125 257.847C370.572 296.988 377.753 335.987 384.695 375.072C385.173 377.756 386.352 380.313 387.205 382.965L388.664 382.515ZM1317.26 130.352L1313.8 130.471C1313.2 133.067 1312.27 135.64 1312.04 138.277C1310.98 151.432 1310 164.618 1309.1 177.836C1306.54 215.675 1304.11 253.513 1301.47 291.344C1300.94 298.842 1303.61 302.568 1311.53 301.881C1318.04 301.321 1324.6 301.092 1331.09 300.405C1341.36 299.277 1342.66 297.327 1341.24 287.327C1334.23 238.154 1327.24 188.978 1320.24 139.8C1319.77 136.572 1318.28 133.494 1317.26 130.352ZM271.9 285.843C281.767 286.75 285.449 284.264 284.564 276.569C282.651 259.354 281.049 242.092 279.32 224.854C276.228 194.159 273.231 163.455 269.924 132.783C269.525 129.137 267.421 125.68 266.114 122.128C264.417 125.522 261.643 128.774 261.189 132.325C255.188 179.233 249.529 226.18 243.727 273.104C242.931 279.284 245.449 282.575 251.697 283.317C259.388 284.154 267.039 285.188 271.9 285.803V285.843ZM893.788 184.111C894.92 181.664 896.107 180.007 896.466 178.191C901.303 153.463 906.157 128.726 910.716 103.942C913.107 91.0927 910.779 87.7067 898.06 84.5337C886.687 81.6844 874.486 82.0948 865.568 88.7406C861.089 92.0793 861.081 102.466 860.786 109.744C860.491 117.021 860.579 124.945 863.495 131.236C871.242 147.969 880.566 164 889.389 180.235C890.098 181.554 891.82 182.39 893.788 184.071V184.111ZM578.477 132.041C577.425 133.296 576.086 134.409 575.377 135.822C566.204 155.554 556.775 175.192 548.28 195.216C546.306 200.355 546.079 205.992 547.634 211.27C556.903 240.648 566.873 269.82 576.771 299C577.568 301.273 579.577 303.136 581.027 305.188L583.418 304.178C566.196 247.238 566.554 189.967 578.477 132.041Z" fill="#FF6600"/>
</g>
<defs>
<clipPath id="clip0_2_34">
<rect width="1458" height="436" fill="white"/>
</clipPath>
</defs>
</svg>
