<?xml version="1.0" encoding="utf-8"?>
<svg version="1.1" xmlns="http://www.w3.org/2000/svg" xmlns:xlink="http://www.w3.org/1999/xlink"
	viewBox="0 0 128 128">
	<path fill="#F60"
		d="M104.2,114.8c0,3.5-13.9,1.4-15.5,1.2c-0.1,0.2-0.2,0.4-0.3,0.6c3.4,0.7,6.9,1.2,10.2,2.1
	c2.3,0.6,6.1,1.9,5.9,2.6c-0.4,2.5-4.1,1.4-6.5,1.5c-22.1,0.3-44.3,0.5-66.4,0.6c-7.6,0.1-8.5-0.5-8.6-5.5c0-5.6-1-11.3,0.5-16.7
	c1.7-6.5,4.9-12.8,8.6-19c8.9-14.9,18.4-29.6,27.6-44.4c0.4-0.6,0.6-1.3,0.9-2c0.7-1.6-0.2-2.3-2.7-2.3c-6.7,0-13.3-0.1-20-0.2
	c-4.7,0-6.4-0.8-6.6-4c-0.5-7.1-0.7-14.1-1.1-21.2c-0.1-2.7,2.4-3.1,5.7-3.1C54.6,5,73.3,4.8,92,4.6c2.4,0,4.8,0,7.2,0
	c4.5-0.1,6.3,0.7,6.1,3.7c-0.7,11.4,0,22.7-7,33.7C89.4,55.8,82,70,73.9,84c-1.9,3.3-4.1,6.4-5.9,9.7c-1.4,2.5-0.8,2.8,3,2.7
	c5.5-0.2,8.9-0.4,16.4-0.3S104.2,99.7,104.2,114.8z" />
</svg>