<svg xmlns="http://www.w3.org/2000/svg" viewBox="0 0 1829.44 970.17">
  <path
    d="M542.45,533.21c0-16.19.61-32.42-.13-48.58-1.33-29-4.23-57.95-5.12-87-1.6-52.11-2.3-104.25-3.19-156.39Q532.7,164.17,531.77,87c-.26-18.26,1.34-20.29,19.37-20.07,28.35.34,56.68,1.44,85,1.94,9.1.16,12.65,4.52,12.54,13.21-.52,41.35-1.33,82.71-1.16,124.07.08,18.19,2.24,36.37,3.54,56,13.81-44.85,27-88.32,40.6-131.67,5.68-18.13,11.81-36.14,18.6-53.88,1.42-3.72,6.25-7.56,10.22-8.59a119.2,119.2,0,0,1,26.4-3.65c24.23-.66,48.49-.6,72.74-.84,12.93-.13,16.65,5.17,10.94,16.57-6,12-12.65,23.66-18.93,35.51-1.26,2.38-2.14,5-3.2,7.42l2.61,1.57c6.34-8.91,13.2-17.51,18.88-26.83,5.11-8.38,11.62-12.17,21.3-10.58a20.23,20.23,0,0,0,6.68.45c23.84-4.24,23.51,3,24.65,24.2,1.95,36,2.62,72.15,3,108.25.89,83.45,1.24,166.9,1.92,250.36.09,12,6.83,21.05,15.32,21.55,9.13.54,16-6.62,17.68-19.43a142.16,142.16,0,0,0,.91-22.32c-1-32.76-2.68-65.5-3.24-98.27-.44-25.31.4-50.66.73-76,.7-53.66,1.5-107.31,2.08-161,.1-8.93-.7-17.87-1.16-26.79-.44-8.35,3.28-12.28,11.82-12.5,25.71-.66,51.41-1.77,77.13-2.46,14.1-.38,17,1.9,17.17,15.59.3,18.62,1,37.39-.87,55.85-4.17,41-2.7,81.65.18,122.68,2.44,34.8-.51,70-1,105-.09,5.81,0,11.62,0,18.75,4.06-1.22,6.38-1.35,8-2.49,6.47-4.68,9.42-1.29,11.52,4.58,3.89,10.87,6.59,22.37,11.94,32.46a413.77,413.77,0,0,0,29.53,48.41c7.22,10,18,17.38,31.69,15.41,22.13-3.19,33.4-23.6,23.58-45.69-7.19-16.2-17.83-30.89-26.91-46.26-24-40.68-50.36-80.25-71.11-122.54-9.91-20.19-10.57-45.41-13.09-68.61-4-36.38,5.15-71,24.49-101.38,21.5-33.73,51.92-54,94.55-56.19,38.14-2,73.77,8.9,110.55,13.85,19.95,2.69,40,4.31,60.1,6.18,12.88,1.2,14.74,2.94,11.1,15.27-13.82,46.8-28,93.5-42.07,140.23q-18.52,61.5-37.13,123c-2.23,7.35-.06,11.75,8,12.18,17.87.93,35.74,1.71,53.61,2.62,6.43.33,9.94-2.06,9.54-9-1.12-19.56-2.78-39.12-3-58.7-.28-25.57.79-51.15.89-76.72,0-6.24-2-12.48-2.1-18.73-.6-29.41,11.11-56.09,20.08-83.13,11.46-34.54,5-30.32,43.14-31.39q18.46-.51,36.88-1.72c10.07-.66,14.33,3.47,13.89,13.7-.89,20.85-1.74,41.72-1.64,62.58.14,30.17,1.25,60.32,1.69,90.49.1,7.08-.84,14.17-1.3,21.26l3.49.93c1.88-3.62,4.25-7.07,5.56-10.89Q1467.85,179,1495.8,97.06c4-11.57,9.22-20.27,24-20.16,29.45.21,58.9-1.33,88.35-1.31,11.76,0,14.82,6.11,10.08,17.14q-42.57,99.09-85.18,198.16c-4.82,11.3-9.66,22.77-12.56,34.63-1.73,7.11-1.67,15.89,1,22.61,14.45,37.12,29.65,74,45.2,110.64,8,18.85,17.23,37.18,26,55.69,1.08,2.27,2.76,4.25,6.58,5.72-.92-3.46-1.28-7.21-2.86-10.35-17-33.68-18.16-68.59-12.62-105.5,10.62-70.74,18.35-141.9,28-212.79,3-22.1,8.32-43.89,12.49-65.84,2-10.38,7.39-16.36,18.6-17.28q58.53-4.85,117-10.48c7.52-.72,11,2.68,12.85,9.29,10.6,38.79,21.88,77.4,31.68,116.39,12,47.69,23.09,95.61,34,143.57,5.67,25,9.43,50.48,15.09,75.51,8.63,38.14,18.15,76.08,27.32,114.1.61,2.54,1.53,5,2.19,7.52,3.1,11.9,1.52,14.38-11.07,16-7.39,1-14.87,1.18-22.29,2-23,2.5-45.89,5.62-68.9,7.54-17,1.42-19.33-1.26-20.91-18.13-1-11.13-2.22-22.25-3.11-33.39-.58-7.24-4.26-11.27-11.47-10.73-21.18,1.58-42.43,2.93-63.44,5.88-4,.56-9.06,7.62-10,12.4-2.65,13.47-3.39,27.32-4.92,41-1,8.51-5.33,14.67-14.25,14.13-27.13-1.62-54.22-4-81.32-6.2-1.23-.1-2.35-1.44-5.48-3.47l42.85-30.54c-.43-.82-.87-1.64-1.31-2.46-4.61,1.88-9.41,3.42-13.81,5.71-18.88,9.79-37.62,19.83-56.45,29.69a70.35,70.35,0,0,1-11.21,5c-15.92,5-20,2.35-25.69-13.32-9-24.81-19.39-49.14-28-74.09-10.75-31.33-20.19-63.11-30.32-94.65-2.4-7.48-5.29-14.8-8-22.19l-4.13.78v56.11q0,53.11,0,106.24c0,15.24-1.4,16.71-16.63,16.79q-43.1.19-86.19,0c-13.3-.07-14.86-2.13-14.43-15,.81-24.57,1.54-49.13,1.89-73.71.11-8.05,4-11.75,11.38-12.27,28.13-2,23.91.41,29.39-31.46,2.68-15.6,2.48-31.7,3.58-47.57l-2.72-.51c-.76,2.1-1.88,4.14-2.23,6.31q-3.12,19.32-5.93,38.68c-3.13,21.8-6,24.86-28.33,25.62-16,.54-32.08-.09-48.12-.11-15.87,0-17.55,1.4-21.72,16.38-3.09,11.12-6.52,22.14-9.8,33.21-10.56,35.63-36.33,55.5-69.45,68.85-27,10.87-54.78,8.52-81.59,4.15-15.95-2.6-32-12.74-45-23.24-24.9-20.13-47.06-43.33-60.71-73.26-4-8.64-5.63-16.55-.82-25.48,6.85-12.7,13-25.77,19.4-38.69l-2.32-1.57c-10.17,15.19-20.63,30.2-30.26,45.73-1.75,2.82-1.34,8.29.16,11.58,6.8,14.87,13.74,29.74,21.79,44,8.17,14.43,8.16,21.1-5,31.71-32.18,25.93-69.27,35.15-110.07,30.66-14.16-1.56-27.45-5.33-40.26-15.6,13.07-4.79,9.24-12.82,5.7-20.44-5.14-11-10.67-21.9-16-32.83L821.48,521c2.95,8.26,5.88,16.53,8.87,24.77,4.49,12.35,3.75,14.21-9.33,16.21-29.12,4.44-58.33,8.24-87.45,12.67-10.46,1.59-16-2.78-19.24-12.3-13.39-38.72-27.29-77.26-40.54-116-5.28-15.45-9.21-31.36-14-47-1.58-5.1-4.06-9.93-7.2-17.47-1.88,4.62-3.32,6.44-3.25,8.2q3.36,79.83,7,159.64c.09,1.86.34,3.72.46,5.58,1.43,22.34-2.1,25.71-24.09,24.52-22.35-1.21-45,.13-67-3.27-38.4-6-75.51,3.81-113.21,5.77q-7.83.4-15.64,1c-7.74.53-11.77-2.69-12.33-10.76-1.2-17.09-2.85-34.15-4.27-51.23-1.15-13.68-3.61-16.31-16.92-16.76-10.81-.37-21.65-.15-32.46-.49-8.37-.27-12.62,3.74-13,11.82-.41,8.56-.33,17.14-.67,25.7-.6,14.79-5,18.56-19.68,16.28-28.36-4.38-56.67-9.1-85-13.64-4.37-.7-8.78-1.14-13.17-1.7-.26.91-.51,1.83-.77,2.75,9.53,2.91,19.35,5.15,28.5,9,6.33,2.64,17,8.07,16.61,11.21-1.21,10.48-11.6,6.15-18.26,6.27-61.91,1.16-123.83,2-185.75,2.75-21.27.27-23.9-2.26-23.94-23.6C55.61,527,53,502.61,57,479.45c4.8-27.57,13.78-54.78,24-80.95,24.81-63.51,51.39-126.33,77.21-189.45,1.12-2.74,1.7-5.7,2.56-8.56,2.05-6.83-.59-9.72-7.61-9.77-18.6-.12-37.2-.48-55.81-.78-13.26-.21-17.83-3.56-18.49-17-1.49-30.14-2-60.33-3-90.5-.39-11.49,6.73-13.31,16-13.44q78.31-1.12,156.63-2.49c6.71-.11,13.44,0,20.14-.21,12.6-.46,17.62,3.19,17.11,16-1.94,48.54.13,97.1-19.59,144-24.83,59-45.49,119.73-68.1,179.66-5.26,13.94-11.47,27.52-16.58,41.51-3.81,10.47-2.28,11.83,8.38,11.37,15.27-.66,30.57-1,45.85-1.34,9.86-.2,14.71-5.32,16.61-14.71,10.8-53.32,22.08-106.54,32.59-159.91,4.17-21.17,6-42.82,10.29-63.95,5.13-25.17,11.55-50.08,17.9-75,5.33-20.94,11.6-41.64,16.95-62.58,2.27-8.85,6.86-13.75,16.22-13.6,34.29.55,68.58.82,102.83,2,3.83.13,10,4.9,10.81,8.49,7.53,33.39,15.11,66.82,20.76,100.57,11,65.38,20.36,131,31,196.45,8.09,49.59,17.1,99,25.81,148.52.6,3.4,2.08,6.64,3.15,10ZM1707.62,213.73l-4.34.15c-.76,3.29-1.93,6.55-2.21,9.89q-2,25-3.69,50.12c-3.21,47.94-6.26,95.88-9.58,143.81-.66,9.5,2.69,14.22,12.63,13.35,8.17-.71,16.39-1,24.54-1.87,12.88-1.43,14.52-3.9,12.73-16.57q-13.18-93.45-26.34-186.91C1710.77,221.61,1708.89,217.71,1707.62,213.73Zm-1311.68,197c12.38,1.15,17-2,15.89-11.75-2.4-21.81-4.41-43.68-6.58-65.52-3.88-38.89-7.64-77.79-11.79-116.65-.5-4.62-3.14-9-4.78-13.5-2.13,4.3-5.61,8.42-6.18,12.92-7.53,59.43-14.63,118.91-21.91,178.36-1,7.83,2.16,12,10,12.94C380.24,408.59,389.84,409.9,395.94,410.68Zm780.32-128.89c1.42-3.1,2.91-5.2,3.36-7.5,6.07-31.33,12.16-62.67,17.88-94.07,3-16.28.08-20.57-15.88-24.59-14.27-3.61-29.58-3.09-40.77,5.33-5.62,4.23-5.63,17.39-6,26.61s-.26,19.26,3.4,27.23c9.72,21.2,21.42,41.51,32.49,62.08C1171.63,278.6,1173.79,279.66,1176.26,281.79ZM780.62,215.87c-1.32,1.59-3,3-3.89,4.79-11.51,25-23.34,49.88-34,75.25a32,32,0,0,0-.81,20.34c11.63,37.22,24.14,74.18,36.56,111.15,1,2.88,3.52,5.24,5.34,7.84l3-1.28C765.21,361.82,765.66,289.26,780.62,215.87Z"
    transform="translate(-54.77 -48.58)" fill="#f60" />
  <path
    d="M1613.82,828c35.31-2.39,70.62-4.9,105.94-7.11,11.74-.73,25.29-3.43,30.12,11.73,2.53,7.91,2.1,16.9,2.23,25.42.3,19,4.62,19.73-19.53,20.65q-70.41,2.7-140.79,5.89c-13.4.6-26.75,2.54-40.14,2.72-15,.19-10.62,11.36-11.75,19.22-1.27,8.84,4.07,12.15,12.06,12,34.28-.66,68.58-1,102.83-2.27,46.17-1.76,92.29-4.43,138.45-6.44,14.28-.63,17.16,2.38,17.46,16.46.39,18.57,1,37.15.8,55.72-.16,14.74-1.72,16.24-15.94,16.45-91.32,1.33-182.64,2.36-274,3.75-22.31.34-44.65,1.14-66.92,2.67-18.75,1.3-23.36-2.47-24-20.9-2.18-65.49-4.76-131-6.9-196.46-.56-17.11-.27-34.26,0-51.38.17-13.13,4-17.64,17-18.29,43.18-2.2,86.37-4.37,129.59-5.79q89.93-3,179.91-4.7c28.48-.51,29.14,1,26.38,29.71-1.27,13.26-2.94,26.56-3,39.84,0,10.45-4.32,13.72-14.11,13.64-36.17-.31-72.35-.53-108.52-.13-31.67.35-63.33,1.46-95,2.44-18.26.57-26.22,14.19-17,30.35,1.87,3.3,8.66,5.2,13.25,5.33,20.49.56,41,.24,61.51.24Z"
    transform="translate(-54.77 -48.58)" fill="#fff" />
  <path
    d="M1348.31,728.88c-7.38,10.35-13.8,19.74-20.61,28.85-33.64,45-67.11,90.21-101.18,134.92q-41.89,55-85.28,108.81c-3.85,4.78-11.7,8.35-18,8.81-31.58,2.33-63.24,3.57-94.89,4.81a14,14,0,0,1-9.55-3.79C989.09,980,959,949.08,930.46,916.71c-10-11.3-20.87-22-29.86-33.46-6.6-8.44-12.07-18.93-19.7-27.18-19.09-20.63-39-40.54-58-61.21C809.51,780.34,797,765.09,784.17,750a34.84,34.84,0,0,1-4.43-7.7c-4.09-8.65-.3-15.81,9.3-16,38.37-.75,76.75-1.33,115.13-1.2,4.66,0,10.59,3.62,13.78,7.39,47,55.34,93.64,111,140.44,166.54,7.34,8.71,11.13,9,18.58-.47,20.93-26.65,41-54,61.93-80.62s42.09-53.19,64.52-78.56c5.41-6.12,16.16-10.18,24.64-10.51,38.29-1.48,76.64-1.3,115-1.66C1344.05,727.25,1345.08,727.86,1348.31,728.88Z"
    transform="translate(-54.77 -48.58)" fill="#fff" />
  <path
    d="M343.3,913.25c34.67,0,69.35.25,104-.18,8.85-.11,12.19,3.36,12.16,11.58-.11,26.31,3.75,52.63-1.37,79-1.39,7.17-3.6,10.62-11,10.91-31.26,1.25-62.52,4.07-93.76,3.86-69.66-.48-139.3-2.37-208.95-3.9-5.1-.12-10.17-2-15.25-3-8.38-1.73-12.15-7.18-11.21-15.34,2.29-19.79-4.33-40.28,4.82-59.53a6.65,6.65,0,0,0-.06-4.29C114.11,902.7,112.54,873,121,843c1.13-4,.24-8.79-.4-13.11-1.35-9-4.15-18-4.54-27-.65-15.1.38-30.27.14-45.4-.07-4.54-4.34-11.29-2.59-13.12,3.91-4.09,10.24-7.55,15.87-8,23.37-2,46.84-3,70.29-4a34.49,34.49,0,0,1,14.21,2c2.42,1,4.85,5.24,4.95,8.11.8,22.89.94,45.81,1.5,68.71.39,15.62.69,31.27,1.86,46.84,1.12,15,3.69,29.9,4.89,44.9.66,8.23,4.38,10.66,12.21,10.6,34.65-.27,69.3-.12,104-.12Z"
    transform="translate(-54.77 -48.58)" fill="#fff" />
  <path
    d="M574.61,878.63c-1.16-38.8-2.71-79-3.26-119.14-.11-7.84,3.08-16,5.93-23.49,1-2.71,5.53-5.8,8.46-5.81,29-.14,57.93.36,86.89.63,10.09.09,13.69,6.13,13.83,15.11s-.32,17.85,0,26.76c1.36,43.47,2.58,87,4.45,130.41,1.09,25.23,3.81,50.39,4.79,75.62.42,10.64-1,21.53-3.16,32-.69,3.33-6.38,8-9.79,8-33.13.09-66.26-.75-99.39-1.16-9.2-.12-8.54-6.69-8.57-12.55-.14-36.84-.11-73.68-.14-110.51C574.6,889.68,574.61,884.84,574.61,878.63Z"
    transform="translate(-54.77 -48.58)" fill="#fff" />
</svg>